<?xml version="1.0" encoding="UTF-8"?>
<svg width="845px" height="143px" viewBox="0 0 845 143" version="1.1" xmlns="http://www.w3.org/2000/svg" xmlns:xlink="http://www.w3.org/1999/xlink">
    <title>FA_SANTANDER_PVR_POS_RGB</title>
    <g id="Page-1" stroke="none" stroke-width="1" fill="none" fill-rule="evenodd">
        <g id="FA_SANTANDER_PVR_POS_RGB" fill="#EC0000" fill-rule="nonzero">
            <path d="M107.63,65.44 C107.403687,60.2072138 105.918336,55.1062522 103.3,50.57 L79.81,9.84 C78.0414319,6.78493332 76.7848212,3.46099535 76.09,-1.42108547e-14 L75.09,1.7 C69.2701435,11.7802871 69.2701435,24.1997129 75.09,34.28 L93.9,66.86 C99.7198565,76.9402871 99.7198565,89.3597129 93.9,99.44 L92.9,101.14 C92.2036301,97.6762949 90.9471447,94.3493109 89.18,91.29 L71.96,61.47 L60.96,42.42 C59.1914319,39.3649333 57.9348212,36.0409954 57.24,32.58 L56.24,34.28 C50.4451138,44.3264903 50.4260725,56.6957159 56.19,66.76 L75.05,99.44 C80.8698565,109.520287 80.8698565,121.939713 75.05,132.02 L74.05,133.72 C73.3536301,130.256295 72.0971447,126.929311 70.33,123.87 L46.87,83.16 C43.7746068,77.7911041 42.2726656,71.6515292 42.54,65.46 C17.37,72.03 5.68434189e-14,86 5.68434189e-14,102.16 C5.68434189e-14,124.66 33.61,142.89 75.08,142.89 C116.55,142.89 150.17,124.66 150.17,102.16 C150.17,85.99 132.81,72.02 107.63,65.44 Z M178.52,134.98 C178.683192,130.12132 179.586929,125.316001 181.2,120.73 C189.344164,124.285849 198.123713,126.156733 207.01,126.23 C220.13,126.23 227.47,122 227.47,113.68 C227.47,105.36 222.11,101.68 208.85,95.91 L201.65,92.81 C188.4,87.02 179.37,79.55 179.37,64.6 C179.37,48.52 190.51,38.22 213.37,38.22 C222.143003,38.1100558 230.870799,39.4931122 239.18,42.31 C238.872103,47.1178699 237.923726,51.8631178 236.36,56.42 C228.928047,53.7914379 221.112699,52.4094763 213.23,52.33 C200.96,52.33 195.32,57.12 195.32,64.6 C195.32,72.08 200.82,76.16 210.69,80.4 L218.31,83.64 C236.22,91.26 243.7,99.3 243.7,112.98 C243.7,129.2 231.43,140.34 207.45,140.34 C195.87,140.34 186.42,138.65 178.52,134.98 L178.52,134.98 Z M319.43,67.56 L319.43,138.08 L305.19,138.08 L304.34,129.62 C300.39,135.83 294.34,139.77 284.45,139.77 C265.83,139.77 253.45,126.23 253.45,102.54 C253.45,77.71 266.71,63.61 292.8,63.61 C302.93,63.61 311.25,64.74 319.43,67.56 L319.43,67.56 Z M303.92,122 L303.92,77.71 C300.234621,77.1080635 296.503966,76.8270097 292.77,76.87 C276.69,76.87 269.22,86.74 269.22,102.54 C269.22,116.93 275,127.08 288.82,127.08 C294.281557,127.13399 299.601668,125.344178 303.92,122 Z M398.81,90.69 L398.81,138.08 L383.33,138.08 L383.33,93.37 C383.33,82.23 379.66,76.87 364.15,76.87 C360.033134,76.9195871 355.926781,77.2974518 351.87,78 L351.87,138.08 L336.36,138.08 L336.36,67.56 C346.23,65.16 357.09,63.56 364.57,63.56 C390.52,63.61 398.81,73.62 398.81,90.69 L398.81,90.69 Z M441.81,126.52 C445.946687,126.533852 450.053237,125.816136 453.94,124.4 C453.550874,128.801308 452.940099,133.1802 452.11,137.52 C447.919318,139.09668 443.466559,139.860301 438.99,139.77 C423.9,139.77 414.31,132.86 414.31,115.66 L414.31,41.61 C419.344978,40.1017556 424.573984,39.3403153 429.83,39.3499088 L429.83,66.01 L454.37,66.01 C454.145151,70.4526405 453.67443,74.8794191 452.96,79.27 L429.88,79.27 L429.88,113.82 C429.88,122.99 434.39,126.52 441.86,126.52 L441.81,126.52 Z M525.04,67.52 L525.04,138.04 L510.81,138.04 L509.96,129.58 C506.01,135.79 499.96,139.73 490.08,139.73 C471.46,139.73 459.08,126.19 459.08,102.5 C459.08,77.67 472.33,63.57 498.43,63.57 C508.58,63.61 516.9,64.74 525.09,67.56 L525.04,67.52 Z M509.52,121.96 L509.52,77.71 C505.837985,77.1080405 502.110648,76.8269846 498.38,76.87 C482.3,76.87 474.82,86.74 474.82,102.54 C474.82,116.93 480.61,127.08 494.43,127.08 C499.90535,127.143816 505.241256,125.353432 509.57,122 L509.52,121.96 Z M604.45,90.65 L604.45,138.04 L588.98,138.04 L588.98,93.37 C588.98,82.23 585.31,76.87 569.8,76.87 C565.686425,76.9191404 561.583359,77.2970103 557.53,78 L557.53,138.08 L542.01,138.08 L542.01,67.56 C551.89,65.16 562.75,63.56 570.22,63.56 C596.18,63.61 604.5,73.62 604.5,90.69 L604.45,90.65 Z M683.15,39.31 L683.15,138.04 L668.96,138.04 L668.11,129.04 C664.16,135.67 658.11,139.75 647.94,139.75 C629.32,139.75 616.94,126.21 616.94,102.52 C616.94,77.69 630.2,63.59 656.29,63.59 C660.157971,63.6034579 664.015699,63.988561 667.81,64.74 L667.81,41.47 C672.63,39.77 678.13,39.35 683.2,39.35 L683.15,39.31 Z M667.81,121.72 L667.81,78.28 C663.731653,77.3915782 659.573702,76.91916 655.4,76.87 C640.02,76.87 632.69,86.46 632.69,102.54 C632.69,116.93 638.47,127.080245 652.29,127.080245 C657.921477,127.105026 663.39419,125.214965 667.81,121.72 L667.81,121.72 Z M761.18,107.9 L711.68,107.9 C713.68,120.45 720.99,126.52 734.81,126.52 C743.375989,126.511095 751.84254,124.684174 759.65,121.16 C759.09,125.25 758.24,130.61 757.26,135.26 C750.2,138.51 742.73,139.77 734.41,139.77 C708.41,139.77 695.9,125.39 695.9,101.27 C695.9,80.27 705.63,63.61 730.32,63.61 C752.46,63.61 762.050274,78.14 762.050274,95.91 C762.060371,99.9220792 761.776275,103.92951 761.2,107.9 L761.18,107.9 Z M711.4,94.9 L746.4,94.9 C746.4,83.34 740.2,76.57 729.48,76.57 C718.47,76.59 712.68,82.93 711.42,94.92 L711.4,94.9 Z M815.51,64.16 C815.555391,68.6197034 815.082215,73.0695669 814.1,77.42 C810.210816,77.0065839 806.300887,76.8196019 802.39,76.86 C798.567956,76.861509 794.75113,77.1422563 790.97,77.7 L790.97,138.07 L775.45,138.07 L775.45,67.56 C782.08,65.3 793.23,63.56 801.97,63.56 C806.490786,63.5194264 811.010523,63.7197102 815.51,64.16 L815.51,64.16 Z" id="Shape"></path>
            <path d="M840.91,38.75 C838.624687,36.4442728 835.506308,35.1572652 832.26,35.18 C829.093307,35.1330682 826.046033,36.3874029 823.83,38.65 C821.502527,40.9271578 820.187392,44.0438485 820.18,47.3 C820.250149,53.9455997 825.614525,59.3188579 832.26,59.4 C835.494397,59.3679743 838.588036,58.0723785 840.88,55.79 C843.168548,53.5636496 844.438265,50.492453 844.39,47.3 C844.416445,44.0999913 843.163639,41.0219745 840.91,38.75 L840.91,38.75 Z M839.91,54.75 C837.881251,56.7695336 835.132561,57.8992307 832.27,57.8900561 C829.458341,57.894027 826.764383,56.7616267 824.8,54.75 C822.780366,52.7582205 821.644208,50.0394718 821.646085,47.2029066 C821.647967,44.3663414 822.787728,41.649101 824.81,39.66 C826.766938,37.6904377 829.444044,36.606589 832.22,36.66 C835.073792,36.6272269 837.81956,37.7498713 839.832915,39.7726431 C841.84627,41.795415 842.956089,44.5463919 842.91,47.4 C842.935423,50.1696992 841.838844,52.8317877 839.87,54.78 L839.91,54.75 Z" id="Shape"></path>
            <path d="M831.98,48.59 L830.39,48.59 L830.39,53.23 L828.39,53.23 L828.39,40.95 C829.463545,40.7118043 830.560361,40.5944082 831.66,40.6 C835.47,40.6 836.61,42.51 836.61,44.44 C836.689791,46.1756247 835.582239,47.7443125 833.92,48.25 L837.3,53.25 L834.98,53.25 L831.98,48.59 Z M831.61,46.87 C833.82,46.87 834.61,45.97 834.61,44.52 C834.61,43.07 833.49,42.36 831.68,42.35 C831.262296,42.3478165 830.844849,42.3711935 830.43,42.42 L830.43,46.87 L831.61,46.87 Z" id="Shape"></path>
        </g>
    </g>
</svg>